mastitorrents.com
  
http://mastitorrents.com/forums/index.php
  
http://thepiratebay.se/user/HDvideos/0/7

Shanghai (2012) Hindi 1CD DVDRip x264 5.1

Format                                   : Matroska
Format version                           : Version 2
File size                                : 697 MiB
Duration                                 : 1h 53mn
Overall bit rate                         : 856 Kbps
Movie name                               : Shangai [2012].Hindi.x264.DvDRip.5.1 
Encoded date                             : UTC 2012-07-23 17:12:45

Video

ormat                                   : AVC
Format/Info                              : Advanced Video Codec
Format profile                           : High@L3.0
Format settings, CABAC                   : Yes
Format settings, ReFrames                : 4 frames
Muxing mode                              : Header stripping
Codec ID                                 : V_MPEG4/ISO/AVC
Duration                                 : 1h 53mn
Bit rate                                 : 727 Kbps
Width                                    : 720 pixels
Height                                   : 324 pixels
Display aspect ratio                     : 2.222
Frame rate                               : 23.976 fps
Color space                              : YUV
Chroma subsampling                       : 4:2:0
Bit depth                                : 8 bits
Scan type                                : Progressive
Bits/(Pixel*Frame)                       : 0.130
Stream size                              : 579 MiB (83%)
Writing library                          : x264 core 125 r2200 999b753

Audio

Format                                   : AC-3
Format/Info                              : Audio Coding 3
Mode extension                           : CM (complete main)
Format settings, Endianness              : Big
Muxing mode                              : Header stripping
Codec ID                                 : A_AC3
Duration                                 : 1h 53mn
Bit rate mode                            : Constant
Bit rate                                 : 128 Kbps
Channel(s)                               : 6 channels
Channel positions                        : Front: L C R, Side: L R, LFE
Sampling rate                            : 48.0 KHz
Bit depth                                : 16 bits
Compression mode                         : Lossy
Stream size                              : 104 MiB (15%)
Language                                 : Hindi